<svg viewBox="0 0 22 22" xmlns="http://www.w3.org/2000/svg"><path d="m11 3a3 3 0 0 0 -3 3h-3v1 11 1h9v-1h-8v-11h2v1.0878906a1.5 1.5 0 0 0 -1 1.4121094 1.5 1.5 0 0 0 1.5 1.5 1.5 1.5 0 0 0 1.5-1.5 1.5 1.5 0 0 0 -1-1.4121094v-1.0878906h4v1.0878906a1.5 1.5 0 0 0 -1 1.4121094 1.5 1.5 0 0 0 1.5 1.5 1.5 1.5 0 0 0 1.5-1.5 1.5 1.5 0 0 0 -1-1.4121094v-1.0878906h2v6h1v-6-1h-3a3 3 0 0 0 -3-3zm0 1a2 2 0 0 1 2 2h-4a2 2 0 0 1 2-2zm-2.5 5a.5.5 0 0 1 .5.5.5.5 0 0 1 -.5.5.5.5 0 0 1 -.5-.5.5.5 0 0 1 .5-.5zm5 0a.5.5 0 0 1 .5.5.5.5 0 0 1 -.5.5.5.5 0 0 1 -.5-.5.5.5 0 0 1 .5-.5zm2.5 5v2h-2v1h2v2h1v-2h2v-1h-2v-2z" fill="#232629"/></svg>