<svg viewBox="0 0 22 22" xmlns="http://www.w3.org/2000/svg"><path d="m11 3a3 3 0 0 0 -3 3h-3v1 11 1h8v-1h-7v-11h2v1.0878906a1.5 1.5 0 0 0 -1 1.4121094 1.5 1.5 0 0 0 1.5 1.5 1.5 1.5 0 0 0 1.5-1.5 1.5 1.5 0 0 0 -1-1.4121094v-1.0878906h4v1.0878906a1.5 1.5 0 0 0 -1 1.4121094 1.5 1.5 0 0 0 1.5 1.5 1.5 1.5 0 0 0 1.5-1.5 1.5 1.5 0 0 0 -1-1.4121094v-1.0878906h2v6h1v-6-1h-3a3 3 0 0 0 -3-3zm0 1a2 2 0 0 1 2 2h-4a2 2 0 0 1 2-2zm-2.5 5a.5.5 0 0 1 .5.5.5.5 0 0 1 -.5.5.5.5 0 0 1 -.5-.5.5.5 0 0 1 .5-.5zm5 0a.5.5 0 0 1 .5.5.5.5 0 0 1 -.5.5.5.5 0 0 1 -.5-.5.5.5 0 0 1 .5-.5z" fill="#232629"/><path d="m14.833984 14-.833984.833984 1.666016 1.666016-1.666016 1.666016.833984.833984 1.666016-1.666016 1.666016 1.666016.833984-.833984-1.666016-1.666016 1.666016-1.666016-.833984-.833984-1.666016 1.666016z" fill="#da4453"/></svg>