<svg height="48" width="48" xmlns="http://www.w3.org/2000/svg" xmlns:xlink="http://www.w3.org/1999/xlink"><linearGradient id="a" gradientUnits="userSpaceOnUse" x1="-22.976406" x2="-14.360273" y1="18.516047" y2="33.016045"><stop offset="0" stop-color="#ff7171"/><stop offset="1" stop-color="#c00"/></linearGradient><linearGradient id="b" gradientUnits="userSpaceOnUse" x1="-16.387411" x2="-9.735273" y1="24.453547" y2="28.195539"><stop offset="0" stop-color="#3f7ac3"/><stop offset="1" stop-color="#376bb1"/></linearGradient><linearGradient id="c" gradientUnits="userSpaceOnUse" x1="-17.863041" x2="-20.821646" y1="30.827509" y2="25.015009"><stop offset="0" stop-color="#73d216"/><stop offset="1" stop-color="#d5f7b3"/></linearGradient><linearGradient id="d" gradientUnits="userSpaceOnUse" x1="-20.75" x2="-19.5" y1="29" y2="18.75"><stop offset="0" stop-color="#fff"/><stop offset="1" stop-color="#fff" stop-opacity="0"/></linearGradient><radialGradient id="e" cx="28.283663" cy="47.400623" gradientTransform="scale(1.164226 .85894)" gradientUnits="userSpaceOnUse" r="13.804391"><stop offset="0"/><stop offset="1" stop-opacity="0"/></radialGradient><path d="m48.999998 40.714287a16.071428 11.857142 0 1 1 -32.142857 0 16.071428 11.857142 0 1 1 32.142857 0z" fill="url(#e)" fill-rule="evenodd" opacity=".8" transform="matrix(1.4933333 0 0 1.4933333 -25.173331 -35.506666)"/><g transform="matrix(1.6231884 0 0 1.6231884 54.149061 -17.856942)"><path d="m-27.528542 18.092794c-2.569034 1.698331-3.982933 4.005039-3.982933 6.497902v2.069292c0 2.49084 1.413899 4.798223 3.982933 6.496553 2.426489 1.603904 5.633126 2.487468 9.029183 2.487468 3.394772 0 6.601409-.883564 9.0291816-2.487468 2.5677499-1.69833 3.9816497-4.005038 3.9816497-6.496553v-2.069292c0-2.492863-1.4145419-4.800246-3.9816497-6.497902-2.4271306-1.602555-5.6337676-2.486793-9.0291816-2.486793-3.396057 0-6.602694.884238-9.029183 2.486793z" fill="#670000"/><path d="m-7.0244261 24.453547c-1.3785844-3.386544-6.0530579-5.880082-11.6123419-5.880082-5.559285 0-10.233758 2.493538-11.612343 5.880082h-.414795v2.069967c0 4.390164 5.385276 7.948699 12.027138 7.948699 6.642503 0 12.0264951-3.558535 12.0264951-7.948699v-2.069967z" fill="#a40000"/><path d="m-6.6102729 24.453547c0 4.390838-5.3839921 7.949374-12.0264951 7.949374-6.642504 0-12.027138-3.558536-12.027138-7.949374 0-4.390839 5.385276-7.949374 12.027138-7.949374 6.642503 0 12.0264951 3.558535 12.0264951 7.949374z" fill="url(#a)"/><path d="m-6.6102729 26.833098-.0154104-2.166417c-1.304101 4.500778-4.2365627 6.407522-7.9234897 7.340997v1.994425c3.990639-1.00362 7.5619886-3.288745 7.9389001-7.169005z" fill="#204a87"/><path d="m-6.6102729 24.453547c-.27546 5.079478-6.5577471 7.395629-7.9613731 7.483985l-4.065765-7.483985h12.026496z" fill="url(#b)"/><path d="m-21.154435 34.298198v-2.069292c2.263396.294746 4.339941.346681 6.582789-.213809l.022473 1.987681c-1.87942.616471-4.819587.645473-6.605262.296095z" fill="#4e9a06"/><path d="m-18.637411 24.454221 4.065765 7.483311c-2.489414.948988-6.582789.291374-6.582789.291374z" fill="url(#c)"/><g fill="none" stroke="url(#d)" stroke-width="1.020833"><path d="m-6.875 24.375a11.75 7.75 0 1 1 -23.5 0 11.75 7.75 0 1 1 23.5 0z" display="block" opacity=".311111" transform="matrix(.979592 0 0 .979592 -.380102 .497449)"/><path d="m-6.875 24.375a11.75 7.75 0 1 1 -23.5 0 11.75 7.75 0 1 1 23.5 0z" display="block" opacity=".133333" transform="matrix(.979592 0 0 .979592 -.380102 2.497449)"/></g></g></svg>