<svg viewBox="0 0 32 32" xmlns="http://www.w3.org/2000/svg"><path d="m16 4a12 12 0 0 0 -8.113281 3.179688l-.001719-.001688a12 12 0 0 0 -.037344.036844 12 12 0 0 0 -3.847656 8.785156 12 12 0 0 0 12 12 12 12 0 0 0 8.11328-3.179688l.00672.001688a12 12 0 0 0 .03234-.036844 12 12 0 0 0 3.84766-8.785156 12 12 0 0 0 -12-12m0 1a11 11 0 0 1 11 11 11 11 0 0 1 -2.88477 7.408203l-15.52323-15.523203a11 11 0 0 1 7.408-2.885m-8.115 3.592 15.523 15.528a11 11 0 0 1 -7.408 2.88 11 11 0 0 1 -11-11 11 11 0 0 1 2.884766-7.408203" fill="#232629"/></svg>