<svg height="48" width="48" xmlns="http://www.w3.org/2000/svg" xmlns:xlink="http://www.w3.org/1999/xlink"><linearGradient id="a" gradientTransform="matrix(1.1992782 -1.2061574 1.2306697 1.2255073 -36.004294 13.88486)" gradientUnits="userSpaceOnUse" spreadMethod="pad" x1="23.575972" x2="23.575972" y1="25.356892" y2="31.210939"><stop offset="0"/><stop offset=".13482948" stop-color="#c3c3c3"/><stop offset=".20224422" stop-color="#8c8c8c"/><stop offset=".26965895" stop-color="#fff"/><stop offset=".44650277" stop-color="#757575"/><stop offset=".57114136" stop-color="#7d7d7d"/><stop offset=".72038066" stop-color="#b6b6b6"/><stop offset="1"/></linearGradient><linearGradient id="b" gradientTransform="matrix(1.1653763 -1.172061 1.4402748 1.4342331 -39.961363 8.149242)" gradientUnits="userSpaceOnUse" x1="30.037716" x2="30.037716" xlink:href="#f" y1="24.989594" y2="30.000141"/><linearGradient id="c" gradientTransform="matrix(1.1653763 -1.172061 1.4402748 1.4342331 -40.295111 8.484905)" gradientUnits="userSpaceOnUse" x1="30.037716" x2="30.037716" xlink:href="#h" y1="24.989594" y2="30.000141"/><linearGradient id="d" gradientTransform="matrix(1.1653763 -1.172061 1.4402748 1.4342331 -38.801593 6.982818)" gradientUnits="userSpaceOnUse" x1="30.037716" x2="30.037716" xlink:href="#f" y1="24.989594" y2="30.000141"/><linearGradient id="e" gradientTransform="matrix(1.1653763 -1.172061 1.4402748 1.4342331 -39.135341 7.31848)" gradientUnits="userSpaceOnUse" x1="30.037716" x2="30.037716" xlink:href="#h" y1="24.989594" y2="30.000141"/><linearGradient id="f"><stop offset="0" stop-color="#3e3e3e"/><stop offset=".5" stop-color="#828282"/><stop offset="1" stop-color="#3c3c3c"/></linearGradient><linearGradient id="g" gradientTransform="matrix(1.1653763 -1.172061 1.4402748 1.4342331 -37.636216 5.810757)" gradientUnits="userSpaceOnUse" x1="30.037716" x2="30.037716" xlink:href="#f" y1="24.989594" y2="30.000141"/><linearGradient id="h"><stop offset="0" stop-color="#999"/><stop offset=".5" stop-color="#fff"/><stop offset="1" stop-color="#777"/></linearGradient><linearGradient id="i" gradientTransform="matrix(1.1653763 -1.172061 1.4402748 1.4342331 -37.969965 6.14642)" gradientUnits="userSpaceOnUse" x1="30.037716" x2="30.037716" xlink:href="#h" y1="24.989594" y2="30.000141"/><linearGradient id="j" gradientTransform="matrix(1.0800487 0 0 1.0787164 -1.878029 -.979991)" gradientUnits="userSpaceOnUse" x1="5.517898" x2="9.522056" y1="37.371799" y2="41.391716"><stop offset="0" stop-color="#cbbd27"/><stop offset="1" stop-color="#9b901d"/></linearGradient><linearGradient id="k" gradientTransform="matrix(1.2854316 -1.2912103 1.5886497 1.5800342 -46.994731 7.957059)" gradientUnits="userSpaceOnUse" x1="9" x2="9" y1="29.056757" y2="26.02973"><stop offset="0" stop-color="#e4db7b"/><stop offset="1" stop-color="#f4f0c8"/></linearGradient><path d="m40.5358 38.000347c-.38689-.004558-.697231.036499-.906351.080211l-27.846876 5.801937-5.1255754 1.069482-.1562676.026738-6.50073 3.021285 14.595387-1.336852.125016-.026737 5.15683-1.069482 27.846876-5.828675c.836474-.174843-.292321-.686256-2.531535-1.149691-1.679409-.347577-3.4961-.574542-4.656774-.588216z" fill-rule="evenodd" opacity=".15"/><g transform="matrix(1.1030185 0 0 1.1016579 -2.428387 -1.511033)"><path d="m8.5762863 31.492497c.8059374-.620256 2.9488947.385299 4.8753177 2.303641 1.921816 1.913752 2.887606 4.008698 2.281048 4.822706-.002307.003095.047362.041762.045009.044819l29.243662-29.411407c.742473-.7467317-.265642-2.9615379-2.253222-4.9407789-1.987578-1.9792418-4.205677-2.977123-4.948154-2.230387z" fill="url(#a)" stroke="#000" stroke-linejoin="round" stroke-width=".907163"/><path d="m34.250984 5.6705274c.805936-.6202565 2.948895.3852987 4.875317 2.3036406 1.921815 1.9137515 2.887607 4.008696 2.281047 4.822705-.002306.003095.047364.041763.045009.04482l3.568966-3.589437.072836-.0732536c.002353-.0030569-.047316-.0417239-.04501-.044821.606559-.8140069-.359232-2.9089521-2.281048-4.8227043-1.926422-1.9183412-4.06938-2.9238979-4.875317-2.3036414l-.072837.0732544z" fill="#ff9de8" opacity=".8" stroke="#dd78c5" stroke-linejoin="round" stroke-width=".907163"/><path d="m8.5762863 31.492497c.8059374-.620256 2.9488947.385299 4.8753177 2.303641 1.921816 1.913752 2.887606 4.008698 2.281048 4.822706-.002307.003095.047362.041762.045009.044819l20.139158-20.254679.072836-.073255c.002355-.003056-.047315-.041724-.045008-.044819.606558-.81401-.359232-2.908954-2.281048-4.822706-1.926422-1.918341-4.069381-2.923897-4.875318-2.30364l-.072836.073253z" opacity=".6"/><path d="m30.250607 9.6938497c.805937-.6202572 2.948897.3852983 4.875318 2.3036403 1.921816 1.913752 2.887607 4.008697 2.281047 4.822706-.002307.003094.047363.041762.04501.04482l.36418-.366271c.002355-.003056-.047315-.041724-.045009-.044819.606559-.814009-.359231-2.908955-2.281048-4.822704-1.926422-1.918343-4.06938-2.9238997-4.875318-2.3036424z" fill="url(#b)"/><path d="m29.91686 10.029512c.805937-.620257 2.948896.385298 4.875317 2.303641 1.921817 1.913751 2.887608 4.008695 2.281048 4.822703-.002306.003097.047363.041764.04501.044822l.36418-.36627c.002355-.003057-.047315-.041725-.045008-.04482.606558-.814009-.359232-2.908954-2.281049-4.822705-1.926421-1.918342-4.06938-2.9238989-4.875319-2.3036416z" fill="url(#c)"/><path d="m31.410379 8.5274259c.805936-.6202573 2.948896.385298 4.875317 2.3036411 1.921815 1.913751 2.887606 4.008695 2.281048 4.822705-.002307.003095.047364.041762.045009.044819l.36418-.366269c.002355-.003057-.047314-.041725-.045009-.04482.60656-.814008-.359231-2.908953-2.281049-4.822704-1.92642-1.9183428-4.069377-2.9238988-4.875317-2.3036415z" fill="url(#d)"/><path d="m31.076631 8.8630883c.805937-.6202578 2.948896.385298 4.875317 2.3036397 1.921817 1.913753 2.887608 4.008696 2.281049 4.822705-.002307.003096.047363.041763.045008.044821l.36418-.366272c.002354-.003056-.047314-.041722-.045009-.044818.60656-.814009-.35923-2.908955-2.281047-4.822704-1.92642-1.9183424-4.06938-2.923899-4.875318-2.3036411z" fill="url(#e)"/><path d="m32.575756 7.3553646c.805935-.6202565 2.948894.3852988 4.875315 2.3036406 1.921817 1.9137528 2.887609 4.0086968 2.281049 4.8227048-.002306.003096.047363.041763.045008.044821l.36418-.366269c.002355-.003058-.047313-.041726-.045008-.04482.606559-.814009-.359231-2.908954-2.281048-4.8227055-1.92642-1.9183419-4.069379-2.9238978-4.875317-2.3036407z" fill="url(#g)"/><path d="m32.242007 7.6910264c.805936-.6202573 2.948896.3852987 4.875317 2.3036414 1.921816 1.9137512 2.887608 4.0086962 2.281048 4.8227042-.002306.003097.047364.041763.04501.044821l.36418-.366269c.002354-.003057-.047316-.041727-.045009-.04482.606559-.81401-.359232-2.908955-2.281048-4.8227057-1.926421-1.9183419-4.06938-2.9238986-4.875317-2.3036399z" fill="url(#i)"/></g><path d="m.5 47.5 14.3125-6.34375.125-.125c.669045-.896758-.411452-3.204199-2.53125-5.3125-2.12488-2.113357-4.4860362-3.21456-5.375-2.53125z" fill="url(#k)" fill-rule="evenodd" stroke="url(#j)"/><path d="m4.2587724 40.969711-1.6040807 3.505099 3.53945-1.577849c-.2643369-.322255-.5070326-.650689-.8273352-.969648-.3687542-.367208-.734309-.662289-1.1080341-.957602z" fill-rule="evenodd" stroke="#000" stroke-width=".907163" transform="matrix(1.1030185 0 0 1.1016579 -2.428387 -1.511033)"/></svg>