<svg height="48" width="48" xmlns="http://www.w3.org/2000/svg" xmlns:xlink="http://www.w3.org/1999/xlink"><radialGradient id="a" cx="62.625" cy="4.625" gradientTransform="matrix(2.1647059 0 0 .7529402 -111.56471 36.517647)" gradientUnits="userSpaceOnUse" r="10.625"><stop offset="0"/><stop offset="1" stop-opacity="0"/></radialGradient><linearGradient id="b" gradientTransform="matrix(1.8450847 0 0 1.8339549 -20.057077 -17.214365)" gradientUnits="userSpaceOnUse" x1="24.103895" x2="24.103895" y1="15.180944" y2="34.224861"><stop offset="0" stop-color="#d7e866"/><stop offset="1" stop-color="#8cab2a"/></linearGradient><linearGradient id="c" gradientUnits="userSpaceOnUse" x1="24" x2="24" y1="5" y2="45"><stop offset="0" stop-color="#fff"/><stop offset="1" stop-color="#fff" stop-opacity="0"/></linearGradient><path d="m46.999997 40c0 4.418278-10.297452 8-23 8s-23.0000002-3.581722-23.0000002-8 10.2974522-8 23.0000002-8 23 3.581722 23 8l0 0z" fill="url(#a)" fill-rule="evenodd" opacity=".3"/><path d="m17.5 18.5v-13.0000007h13v13.0000007h13.000001v13h-13.000001v13h-13v-13h-13v-13z" fill="url(#b)" fill-rule="evenodd" stroke="#699536" stroke-linejoin="round"/><path d="m18.5 6.5v12c-.007063.549332-.450668.992937-1 1h-12v11h12c.549332.007063.992937.450668 1 1v12h11v-12c.007063-.549332.450668-.992937 1-1h12v-11h-12c-.549332-.007063-.992937-.450668-1-1v-12z" fill="none" opacity=".4" stroke="url(#c)"/></svg>