<svg viewBox="0 0 22 22" xmlns="http://www.w3.org/2000/svg"><path d="m10.96875 3c-1.75093 0-3.40688.4216019-4.96875 1.2636719l.7773438 1.7871093c.7809199-.3835199 1.4827018-.6574787 2.1074218-.8242187.63297-.16673 1.2779264-.25 1.9355464-.25.986441 0 1.743422.2202494 2.269532.6621094.5261.44187.789062 1.0750006.789062 1.9003906 0 .44187-.056795.8305625-.171875 1.1640625-.11508.33348-.312307.66651-.591797 1-.27948.33349-.867671.883351-1.763672 1.650391-1.100079 1.00333-2.251102 2.785484-2.351562 4.646484h2l-.005859-.03125c0-.75868.131471-1.367612.394531-1.826172.27128-.46689.813133-1.055002 1.626953-1.763672.99467-.84207 1.657528-1.47518 1.986328-1.90039.33704-.4252.587553-.8743797.751953-1.3496098.1645-.47523.246094-1.0217118.246094-1.6386718 0-1.41734-.44773-2.5190444-1.34375-3.3027344-.89601-.79204-2.12564-1.1875-3.6875-1.1875zm-1.96875 14v2h2v-2z" fill="#232629"/></svg>