<svg viewBox="0 0 22 22" xmlns="http://www.w3.org/2000/svg"><path d="m3 3v3 13h1 5v-1h-5v-12h12v4h1v-4-1-2h-2v1h-1v-1h-8v1h-1v-1zm2 4v1h10v-1zm0 3v1h10v-1zm12 1-.996094.994141-.003906-.003907-5 4.998047.007812.007813-.003906 1.003906h-.003906v.990234.009766h2l.005859-.005859.003907-.003907c.004-.00002.005765.001953.009765.001954l-.005859-.00586.986328-.986328 4-3.996094-.705078-.708984-4.990234 4.986328-.59375-.591797 4.992187-4.988281.591797.59375.705078.703125 1-1zm-12 2v1h7v-1z" fill="#232629"/></svg>