<svg viewBox="0 0 22 22" xmlns="http://www.w3.org/2000/svg"><path d="m18.292938 3.4238285-3.166014 3.1660157-2.126954-2.125-.002.00195-.002-.00195-4.5350635 4.5351562-3.4609065-.0000004v1h3.8750155l4.1230015-4.1230466 2.123046 2.1230469.0059-.00391.0039.00391 3.869137-3.8691406z" fill="#27ae60"/><path d="m4 3v14h-1v1h1v1h1v-1h14v-1h-.292969l-3.576172-3.576172-.0039.0039-.0059-.0039-2.123047 2.123047-4.123012-4.123047h-3.8749969v-8.423828zm1 9.423828h3.4609375l4.5351565 4.535156.002-.002.002.002 2.126953-2.125 2.125 2.125.040922.041016h-12.292969z" fill="#232629"/></svg>