<svg viewBox="0 0 22 22" xmlns="http://www.w3.org/2000/svg"><path d="m15 3c-1.662 0-3 1.338-3 3s1.338 3 3 3 3-1.338 3-3-1.338-3-3-3zm-13 6v1h6v1h1v1h1v4h-1v1h-1v1h-6v1h9v-10zm13 1c-.646346 0-1.437635.200563-2 .427734l.455078.914063c.427816-.160506 1.059407-.341797 1.544922-.341797 2.21602 0 4 1.78398 4 4h-6v1h7v-1c0-2.77002-2.22998-5-5-5zm-12 1c-.3523436 0-.6859307.07201-1 .183594v1.09375c.2812497-.163698.6015527-.268514.9492188-.277344h.0019531c.01628-.000199.0325481-.000199.0488281 0 1.104569 0 2 .895431 2 2s-.895431 2-2 2c-.365911 0-.70494-.105764-1-.277344v1.09375c.3140693.111584.6476564.183594 1 .183594 1.656854 0 3-1.343146 3-3s-1.343146-3-3-3z" fill="#232629"/></svg>